<svg version="1.1" viewBox="0.0 0.0 800.0 800.0" fill="none" stroke="none" stroke-linecap="square" stroke-miterlimit="10" xmlns:xlink="http://www.w3.org/1999/xlink" xmlns="http://www.w3.org/2000/svg"><clipPath id="p.0"><path d="m0 0l800.0 0l0 800.0l-800.0 0l0 -800.0z" clip-rule="nonzero"/></clipPath><g clip-path="url(#p.0)"><path fill="#000000" fill-opacity="0.0" d="m0 0l800.0 0l0 800.0l-800.0 0z" fill-rule="evenodd"/><path fill="#000000" d="m0 400.0l0 0c0 -220.9139 179.0861 -400.0 400.0 -400.0l0 0c106.08661 0 207.82819 42.142735 282.8427 117.15729c75.01453 75.01456 117.15729 176.7561 117.15729 282.8427l0 0c0 220.91388 -179.08612 400.0 -400.0 400.0l0 0c-220.9139 0 -400.0 -179.08612 -400.0 -400.0z" fill-rule="evenodd"/><path stroke="#000000" stroke-width="1.0" stroke-linejoin="round" stroke-linecap="butt" d="m0 400.0l0 0c0 -220.9139 179.0861 -400.0 400.0 -400.0l0 0c106.08661 0 207.82819 42.142735 282.8427 117.15729c75.01453 75.01456 117.15729 176.7561 117.15729 282.8427l0 0c0 220.91388 -179.08612 400.0 -400.0 400.0l0 0c-220.9139 0 -400.0 -179.08612 -400.0 -400.0z" fill-rule="evenodd"/><path fill="#000000" fill-opacity="0.0" d="m0 0l800.0 0l0 800.0l-800.0 0z" fill-rule="evenodd"/><path fill="#ffffff" d="m253.39256 624.5469l-56.0 0l139.59377 -411.70312l55.984375 0l-139.57814 411.70312zm199.21681 0l-56.0 0l139.59375 -411.70312l55.984375 0l-139.57812 411.70312z" fill-rule="nonzero"/></g></svg>